<svg width="44" height="43" viewBox="0 0 44 43" fill="none" xmlns="http://www.w3.org/2000/svg">
<path d="M18.7077 2.88012L20.8878 0.694184C21.811 -0.231395 23.3037 -0.231395 24.2169 0.694184L43.3077 19.8261C44.2308 20.7517 44.2308 22.2483 43.3077 23.1641L24.2169 42.3058C23.2938 43.2314 21.8011 43.2314 20.8878 42.3058L18.7077 40.1199C17.7748 39.1845 17.7944 37.6582 18.747 36.7425L30.5805 25.4386H2.35688C1.05078 25.4386 0 24.385 0 23.0755V19.9245C0 18.615 1.05078 17.5614 2.35688 17.5614H30.5805L18.747 6.2575C17.7846 5.34177 17.765 3.81555 18.7077 2.88012Z" fill="#0036CC"/>
</svg>
