<?xml version="1.0" encoding="UTF-8"?>
<!DOCTYPE svg PUBLIC "-//W3C//DTD SVG 1.1//EN" "http://www.w3.org/Graphics/SVG/1.1/DTD/svg11.dtd">
<!-- Creator: CorelDRAW -->
<svg xmlns="http://www.w3.org/2000/svg" xml:space="preserve" width="2160px" height="2160px" version="1.1" style="shape-rendering:geometricPrecision; text-rendering:geometricPrecision; image-rendering:optimizeQuality; fill-rule:evenodd; clip-rule:evenodd"
viewBox="0 0 2160 2160"
 xmlns:xlink="http://www.w3.org/1999/xlink"
 xmlns:xodm="http://www.corel.com/coreldraw/odm/2003">
 <defs>
  <style type="text/css">
   <![CDATA[
    .fil0 {fill:blue}
    .fil1 {fill:blue}
   ]]>
  </style>
 </defs>
 <g id="Layer_x0020_1">
  <metadata id="CorelCorpID_0Corel-Layer"/>
  <path class="fil0" d="M1891 1928l-213 218 -643.77 -609.64c-28.23,-18.36 -39.23,-92.36 1.29,-124.45l89.41 -93.58c21.07,-30.33 97.73,-24.08 118.12,-2.55l647.95 612.22z"/>
  <path class="fil1" d="M996 1713l299 283c-540,180 -1006,-48 -1187,-476 -101.48,-239.96 -113.25,-608.99 -24,-901 91.05,-297.89 337.71,-513.51 651,-579 308.49,-64.48 716,7 935,296 -148,-54 -314.41,16.22 -349.61,186.93 -152.17,-172.52 -390.37,-201.41 -575.39,-118.93 -113.29,50.51 -203.51,146.42 -251,266 -156.34,393.7 -70.64,1070.4 502,1043z"/>
  <path class="fil1" d="M1463.5 454c-56.61,0 -102.5,45.89 -102.5,102.5 0,56.61 45.89,102.5 102.5,102.5 56.61,0 102.5,-45.89 102.5,-102.5 0,-56.61 -45.89,-102.5 -102.5,-102.5z"/>
  <path class="fil1" d="M1730.5 368c-56.61,0 -102.5,45.89 -102.5,102.5 0,56.61 45.89,102.5 102.5,102.5 56.61,0 102.5,-45.89 102.5,-102.5 0,-56.61 -45.89,-102.5 -102.5,-102.5z"/>
  <path class="fil1" d="M1708.5 900c-56.61,0 -102.5,45.89 -102.5,102.5 0,56.61 45.89,102.5 102.5,102.5 56.61,0 102.5,-45.89 102.5,-102.5 0,-56.61 -45.89,-102.5 -102.5,-102.5z"/>
  <path class="fil1" d="M1882.5 1051c-28.99,0 -52.5,23.51 -52.5,52.5 0,29 23.51,52.5 52.5,52.5 28.99,0 52.5,-23.5 52.5,-52.5 0,-28.99 -23.51,-52.5 -52.5,-52.5z"/>
  <path class="fil1" d="M1513.5 1024c-28.99,0 -52.5,23.51 -52.5,52.5 0,29 23.51,52.5 52.5,52.5 28.99,0 52.5,-23.5 52.5,-52.5 0,-28.99 -23.51,-52.5 -52.5,-52.5z"/>
  <path class="fil1" d="M1709.5 1188c-28.99,0 -52.5,23.51 -52.5,52.5 0,28.99 23.51,52.5 52.5,52.5 29,0 52.5,-23.51 52.5,-52.5 0,-28.99 -23.5,-52.5 -52.5,-52.5z"/>
  <path class="fil1" d="M1860.5 1267c-29,0 -52.5,23.51 -52.5,52.5 0,29 23.5,52.5 52.5,52.5 28.99,0 52.5,-23.5 52.5,-52.5 0,-28.99 -23.51,-52.5 -52.5,-52.5z"/>
  <path class="fil1" d="M1860.5 802c-29,0 -52.5,23.51 -52.5,52.5 0,29 23.5,52.5 52.5,52.5 28.99,0 52.5,-23.5 52.5,-52.5 0,-28.99 -23.51,-52.5 -52.5,-52.5z"/>
  <path class="fil1" d="M1556.5 812c-28.99,0 -52.5,23.5 -52.5,52.5 0,28.99 23.51,52.5 52.5,52.5 29,0 52.5,-23.51 52.5,-52.5 0,-29 -23.5,-52.5 -52.5,-52.5z"/>
  <path class="fil1" d="M1629.5 657c-29,0 -52.5,23.51 -52.5,52.5 0,28.99 23.5,52.5 52.5,52.5 28.99,0 52.5,-23.51 52.5,-52.5 0,-28.99 -23.51,-52.5 -52.5,-52.5z"/>
  <path class="fil1" d="M1835.5 608c-28.99,0 -52.5,23.5 -52.5,52.5 0,28.99 23.51,52.5 52.5,52.5 29,0 52.5,-23.51 52.5,-52.5 0,-29 -23.5,-52.5 -52.5,-52.5z"/>
  <path class="fil1" d="M1463.5 1166c-56.61,0 -102.5,45.89 -102.5,102.5 0,56.61 45.89,102.5 102.5,102.5 56.61,0 102.5,-45.89 102.5,-102.5 0,-56.61 -45.89,-102.5 -102.5,-102.5z"/>
  <path class="fil1" d="M1781.5 1423c-56.61,0 -102.5,45.89 -102.5,102.5 0,56.61 45.89,102.5 102.5,102.5 56.61,0 102.5,-45.89 102.5,-102.5 0,-56.61 -45.89,-102.5 -102.5,-102.5z"/>
  <polygon class="fil0" points="1546.5,616.65 1600.84,665.51 1582.95,685.2 1528.58,635.7 "/>
  <polygon class="fil0" points="1650.26,661.27 1685.27,562.51 1710.26,571 1674,680 "/>
  <polygon class="fil0" points="1791.47,552.9 1823.29,609.43 1799.22,622.55 1766.64,566.45 "/>
  <polygon class="fil0" points="1654.78,755.53 1699.44,900.39 1661.22,911.53 1614.85,759.93 "/>
  <polygon class="fil0" points="1619.06,952.4 1573.56,914.17 1603.46,888.01 1644.14,922.72 "/>
  <polygon class="fil0" points="1844.62,1067.14 1803.43,1041.25 1789.35,1065.52 1831.85,1089.65 "/>
  <polygon class="fil0" points="1695.74,1104.21 1695.54,1189.88 1721.36,1189.35 1721.26,1104.21 "/>
  <polygon class="fil0" points="1657.4,1233.99 1563.12,1244.26 1565.95,1271.84 1660.69,1259.86 "/>
  <polygon class="fil0" points="1734.21,1286.83 1770.15,1423.62 1742.23,1430.79 1707.55,1292.96 "/>
 </g>
</svg>
