<svg width="26" height="26" viewBox="0 0 26 26" fill="none" xmlns="http://www.w3.org/2000/svg">
<g clip-path="url(#clip0_85_4)">
<path d="M25.3645 21.8703L20.4963 17.0021C20.2766 16.7824 19.9788 16.6603 19.6663 16.6603H18.8704C20.218 14.9367 21.0188 12.7687 21.0188 10.4103C21.0188 4.79994 16.4729 0.254044 10.8625 0.254044C5.2522 0.254044 0.706299 4.79994 0.706299 10.4103C0.706299 16.0206 5.2522 20.5665 10.8625 20.5665C13.2209 20.5665 15.3889 19.7658 17.1125 18.4181V19.214C17.1125 19.5265 17.2346 19.8244 17.4543 20.0441L22.3225 24.9122C22.7815 25.3712 23.5237 25.3712 23.9778 24.9122L25.3596 23.5304C25.8186 23.0714 25.8186 22.3292 25.3645 21.8703ZM10.8625 16.6603C7.4104 16.6603 4.61255 13.8673 4.61255 10.4103C4.61255 6.95815 7.40552 4.16029 10.8625 4.16029C14.3147 4.16029 17.1125 6.95326 17.1125 10.4103C17.1125 13.8624 14.3196 16.6603 10.8625 16.6603Z" fill="white"/>
</g>
<defs>
<clipPath id="clip0_85_4">
<rect width="25" height="25" fill="white" transform="translate(0.706299 0.254044)"/>
</clipPath>
</defs>
</svg>
